# xmcd
#
# Track frame offsets:
#	182
#	10925
#	25160
#	39865
#	49992
#	70265
#	80965
#	100827
#	116815
#	144512
#	159010
#
# Disc length: 2349 seconds
#
# Revision: 0
# Processed by: cddbd v1.5PL3 Copyright (c) Steve Scherf et al.
# Submitted via: dBpowerAMP V4.0
#
DISCID=8a092b0b
DTITLE=Big Bill - Ene Mee Hesp
DYEAR=1974
DGENRE=Blues
TTITLE0=Ene Mee Hesp
TTITLE1=Stoose Blues
TTITLE2=Pirre for President
TTITLE3=Vismarkt Boogie
TTITLE4=Voordeur Blues
TTITLE5=Ene Me Hesp
TTITLE6=Vosseweg tune
TTITLE7=Fuif in 't Midden Van de Stad
TTITLE8=Space Caca Del Toro
TTITLE9=Frakke
TTITLE10=My Friend Stan
EXTD=
EXTT0=
EXTT1=
EXTT2=
EXTT3=
EXTT4=
EXTT5=
EXTT6=
EXTT7=
EXTT8=
EXTT9=
EXTT10=
PLAYORDER=
